<?xml version="1.0" encoding="UTF-8" standalone="no"?>
<svg
   xmlns:dc="http://purl.org/dc/elements/1.1/"
   xmlns:cc="http://creativecommons.org/ns#"
   xmlns:rdf="http://www.w3.org/1999/02/22-rdf-syntax-ns#"
   xmlns:svg="http://www.w3.org/2000/svg"
   xmlns="http://www.w3.org/2000/svg"
   xmlns:sodipodi="http://sodipodi.sourceforge.net/DTD/sodipodi-0.dtd"
   xmlns:inkscape="http://www.inkscape.org/namespaces/inkscape"
   aria-labelledby="culture-amp-logo-masthead"
   height="144.79315"
   viewBox="0 0 1000 144.79315"
   width="1000"
   version="1.1"
   id="svg1479"
   sodipodi:docname="A.svg"
   style="fill:none"
   inkscape:version="0.92.4 (5da689c313, 2019-01-14)">
  <metadata
     id="metadata1485">
    <rdf:RDF>
      <cc:Work
         rdf:about="">
        <dc:format>image/svg+xml</dc:format>
        <dc:type
           rdf:resource="http://purl.org/dc/dcmitype/StillImage" />
        <dc:title>The People &amp; Culture Platform | Culture Amp </dc:title>
      </cc:Work>
    </rdf:RDF>
  </metadata>
  <defs
     id="defs1483" />
  <sodipodi:namedview
     pagecolor="#ffffff"
     bordercolor="#111111"
     borderopacity="1"
     objecttolerance="10"
     gridtolerance="10"
     guidetolerance="10"
     inkscape:pageopacity="0"
     inkscape:pageshadow="2"
     inkscape:window-width="1920"
     inkscape:window-height="1017"
     id="namedview1481"
     showgrid="false"
     fit-margin-top="0"
     fit-margin-left="0"
     fit-margin-right="0"
     fit-margin-bottom="0"
     inkscape:zoom="0.94375945"
     inkscape:cx="490.12813"
     inkscape:cy="-87.009873"
     inkscape:window-x="1912"
     inkscape:window-y="-8"
     inkscape:window-maximized="1"
     inkscape:current-layer="svg1479" />
  <title
     id="culture-amp-logo-masthead">The People &amp; Culture Platform | Culture Amp </title>
  <g
     id="g1477"
     style="fill:#000000"
     transform="scale(4.0322581)">
    <path
       d="m 25.7678,20.2359 c 0.0963,0.1604 0.1295,0.3509 0.0931,0.5343 -0.34,1.5449 -1.1673,2.9397 -2.3598,3.979 -0.0654,0.0495 -0.1204,0.1114 -0.1619,0.1821 -0.0149,0.0324 -0.0226,0.0676 -0.0226,0.1032 0,0.0357 0.0077,0.0709 0.0226,0.1032 0.0238,0.0277 0.0538,0.0495 0.0875,0.0635 0.0338,0.0141 0.0703,0.0201 0.1068,0.0175 0.1727,-0.046 0.3396,-0.1112 0.4978,-0.1943 0.6995,-0.3973 1.3175,-0.9233 1.8215,-1.5503 0.3036,-0.3683 0.6031,-0.7367 0.8905,-1.1172 0.5412,-0.7515 0.9417,-1.5949 1.182,-2.4893 0.2185,-0.7245 0.4047,-1.4572 0.6314,-2.1817 0.0926,-0.2657 0.2049,-0.5241 0.336,-0.7731 0.0527,-0.0767 0.1138,-0.1473 0.1821,-0.2105 h 0.0567 c 0.0566,0.1902 0.1255,0.3724 0.1659,0.5667 0.1059,0.611 0.1209,1.2343 0.0446,1.8498 -0.084,0.801 -0.2481,1.5915 -0.4898,2.3598 -0.1693,0.4722 -0.3978,0.921 -0.68,1.3357 -0.7093,1.1691 -1.547,2.2552 -2.4975,3.2382 -0.7002,0.6762 -1.4572,1.291 -2.2627,1.8377 -0.0587,0.0301 -0.1121,0.0698 -0.1578,0.1174 -0.0471,0.0567 -0.0716,0.1287 -0.0688,0.2024 0.0169,0.0329 0.0416,0.0611 0.0719,0.0823 0.0303,0.0212 0.0654,0.0346 0.1021,0.0391 0.1693,-0.0011 0.3379,-0.0228 0.5019,-0.0648 0.7479,-0.2155 1.4474,-0.5728 2.0603,-1.0524 1.7144,-1.2639 3.1067,-2.9141 4.0639,-4.8168 0.61,-1.2414 1.0055,-2.5771 1.1698,-3.9506 0.0985,-0.867 0.108,-1.7418 0.0284,-2.6107 -0.0695,-0.4453 -0.0558,-0.8996 0.0404,-1.3398 0.0255,-0.1009 0.0622,-0.1987 0.1093,-0.2915 0.1093,-0.2105 0.2672,-0.2226 0.3724,0 0.1107,0.2107 0.1924,0.4354 0.2429,0.6679 0.2222,1.1134 0.2917,2.2518 0.2064,3.3839 -0.1571,1.8393 -0.6195,3.6395 -1.3681,5.3268 -0.7582,1.7373 -1.8966,3.2824 -3.3313,4.5213 -0.4655,0.4048 -0.9107,0.8096 -1.3924,1.1901 -0.5785,0.4206 -1.1983,0.7814 -1.8498,1.0766 -1.4375,0.7142 -2.9674,1.2251 -4.5456,1.5179 -0.9673,0.1679 -1.9496,0.2331 -2.9306,0.1943 -0.4816,0 -0.9674,-0.0323 -1.449,-0.0566 -1.089,-0.0603 -2.1634,-0.2785 -3.1897,-0.6477 C 10.6125,30.8622 9.1841,30.192 7.8364,29.3798 6.26471,28.4161 4.92426,27.1185 3.9101,25.5789 3.40944,24.8549 2.97331,24.0883 2.60674,23.2879 2.58805,23.2404 2.55798,23.1982 2.51916,23.165 2.48034,23.1319 2.43396,23.1087 2.38411,23.0977 2.11793,23.0315 1.8703,22.9056 1.65992,22.7296 1.44955,22.5536 1.28195,22.332 1.16979,22.0817 0.869647,21.3487 0.636625,20.5901 0.473586,19.815 0.176943,18.5637 0.0181336,17.2838 0,15.998 0.0121573,15.1839 0.0865841,14.372 0.222626,13.5693 0.376271,12.4787 0.647705,11.4079 1.03217,10.3757 1.3722,9.47236 1.8501,8.62716 2.44887,7.87014 2.79698,7.43299 3.08437,6.94321 3.42437,6.49796 5.58228,3.64595 8.67177,1.64072 12.1553,0.831144 12.8272,0.669235 13.4992,0.499229 14.1792,0.373749 14.7863,0.260413 15.3935,0.187555 16.0168,0.130886 16.7373,0.0661228 17.4578,0.00945479 18.1824,0.00135934 21.0891,-0.0391154 23.9366,0.825162 26.3305,2.47452 c 0.2728,0.165 0.5186,0.37117 0.7285,0.61121 0.1551,0.18889 0.2583,0.41487 0.2996,0.65573 0.016,0.05667 0.0484,0.10735 0.0931,0.14572 0.5707,0.55049 1.1779,1.07264 1.7041,1.66361 0.8362,0.91359 1.4414,2.01427 1.7648,3.20985 0.1482,0.48288 0.1998,0.99023 0.1519,1.49306 -0.048,0.5028 -0.1945,0.9913 -0.4312,1.4375 -0.3959,0.6665 -0.9526,1.2232 -1.6191,1.6191 -0.7415,0.5045 -1.631,0.7454 -2.5258,0.684 C 25.6599,13.9561 24.8659,13.6152 24.2621,13.035 23.6277,12.3758 22.9517,11.7579 22.2382,11.1852 21.7687,10.829 21.2829,10.4931 20.7932,10.1733 20.2011,9.81751 19.5452,9.58099 18.8624,9.47709 18.0857,9.33502 17.2947,9.28745 16.5066,9.33542 c -1.7229,0.03283 -3.3899,0.61734 -4.7561,1.66768 -1.0238,0.7735 -1.86646,1.7612 -2.46906,2.8941 -0.34127,0.6874 -0.55651,1.4305 -0.6355,2.1939 -0.0659,0.4709 -0.10374,0.9453 -0.11333,1.4207 0.03818,1.3552 0.39157,2.6829 1.03217,3.8777 0.47332,0.9269 1.10322,1.7649 1.86192,2.4773 0.7057,0.6341 1.4875,1.178 2.3275,1.619 0.956,0.5183 2.0118,0.826 3.0965,0.9027 1.4244,0.1487 2.8632,-0.0672 4.1813,-0.6274 0.6317,-0.297 1.2134,-0.6902 1.7243,-1.1658 0.8824,-0.7589 1.6226,-1.6691 2.1858,-2.6877 0.2105,-0.3683 0.3562,-0.7731 0.5343,-1.1616 0.0526,-0.1174 0.1133,-0.2348 0.174,-0.3481 0.0371,-0.055 0.0806,-0.1052 0.1296,-0.1498"
       id="path1473"
       style="fill:#000000"
       inkscape:connector-curvature="0" />
    <path
       d="m 237.751,14.0672 c 2.915,0 4.857,2.1696 4.857,5.3754 0,3.2058 -1.942,5.343 -4.857,5.343 -2.914,0 -4.889,-2.1372 -4.889,-5.3754 0,-3.2382 1.942,-5.343 4.889,-5.343 z m -85.326,-0.3238 c 2.267,0 3.756,1.2629 4.113,3.2705 h -8.193 c 0.356,-2.0238 1.846,-3.2705 4.08,-3.2705 z m -73.4418,7.9011 c 0,1.9753 -1.1657,3.1411 -3.2382,3.1411 -2.0724,0 -3.3029,-1.1658 -3.3029,-3.1411 V 10.57 c 0,-0.1074 -0.0426,-0.2103 -0.1186,-0.2863 -0.0759,-0.0759 -0.1788,-0.1185 -0.2862,-0.1185 h -4.2096 c -0.1074,0 -0.2103,0.0426 -0.2862,0.1185 -0.0759,0.076 -0.1186,0.1789 -0.1186,0.2863 v 11.2688 c 0,4.9221 2.882,7.3831 6.5087,7.3831 2.5906,0 4.3392,-1.5867 5.084,-3.983 v 3.0763 c 0.0058,0.1055 0.0503,0.2051 0.125,0.2797 0.0747,0.0747 0.1743,0.1192 0.2798,0.1251 h 4.242 c 0.1073,0 0.2103,-0.0427 0.2862,-0.1186 0.0759,-0.0759 0.1186,-0.1789 0.1186,-0.2862 V 10.57 c 0,-0.1074 -0.0427,-0.2103 -0.1186,-0.2863 -0.0759,-0.0759 -0.1789,-0.1185 -0.2862,-0.1185 h -4.2582 c -0.1074,0 -0.2103,0.0426 -0.2862,0.1185 -0.076,0.076 -0.1186,0.1789 -0.1186,0.2863 z m 43.5858,0 c 0,1.9753 -1.166,3.1411 -3.238,3.1411 -2.073,0 -3.303,-1.1658 -3.303,-3.1411 V 10.57 c 0,-0.1074 -0.043,-0.2103 -0.119,-0.2863 -0.075,-0.0759 -0.178,-0.1185 -0.286,-0.1185 h -4.209 c -0.108,0 -0.211,0.0426 -0.287,0.1185 -0.076,0.076 -0.118,0.1789 -0.118,0.2863 v 11.2688 c 0,4.9221 2.882,7.3831 6.509,7.3831 2.59,0 4.339,-1.5867 5.083,-3.983 v 3.0763 c 0.006,0.1055 0.051,0.2051 0.126,0.2797 0.074,0.0747 0.174,0.1192 0.279,0.1251 h 4.242 c 0.108,0 0.211,-0.0427 0.287,-0.1186 0.075,-0.0759 0.118,-0.1789 0.118,-0.2862 V 10.57 c 0,-0.1074 -0.043,-0.2103 -0.118,-0.2863 -0.076,-0.0759 -0.179,-0.1185 -0.287,-0.1185 h -4.258 c -0.107,0 -0.21,0.0426 -0.286,0.1185 -0.076,0.076 -0.119,0.1789 -0.119,0.2863 z m 9.229,6.6707 c 0,0.1073 0.043,0.2103 0.118,0.2862 0.076,0.0759 0.179,0.1186 0.287,0.1186 h 4.177 c 0.107,0 0.21,-0.0427 0.286,-0.1186 0.076,-0.0759 0.119,-0.1789 0.119,-0.2862 V 18.1473 c 0,-2.5582 1.619,-3.0439 3.886,-3.0439 h 1.683 c 0.108,0 0.211,-0.0426 0.287,-0.1185 0.076,-0.0759 0.118,-0.1789 0.118,-0.2863 V 10.57 c 0,-0.1074 -0.042,-0.2103 -0.118,-0.2863 -0.076,-0.0759 -0.179,-0.1185 -0.287,-0.1185 h -0.404 c -2.72,0 -4.404,1.2629 -5.181,4.3392 v -3.9182 c 0,-0.1074 -0.043,-0.2104 -0.119,-0.2863 -0.076,-0.0759 -0.179,-0.1185 -0.286,-0.1185 h -4.177 c -0.108,0 -0.211,0.0426 -0.287,0.1185 -0.076,0.0759 -0.118,0.1789 -0.118,0.2863 z m 65.055,0 c 0,0.1073 0.043,0.2103 0.119,0.2862 0.075,0.0759 0.178,0.1186 0.286,0.1186 h 4.209 c 0.108,0 0.211,-0.0427 0.287,-0.1186 0.075,-0.0759 0.118,-0.1789 0.118,-0.2862 V 17.0139 c 0,-1.8133 1.004,-2.9467 2.914,-2.9467 1.911,0 2.98,1.1334 2.98,2.9467 v 11.3013 c 0,0.1073 0.042,0.2103 0.118,0.2862 0.076,0.0759 0.179,0.1186 0.286,0.1186 h 4.242 c 0.108,0 0.211,-0.0427 0.287,-0.1186 0.076,-0.0759 0.118,-0.1789 0.118,-0.2862 V 17.0139 c 0,-1.8133 1.036,-2.9467 2.915,-2.9467 1.878,0 2.979,1.1334 2.979,2.9467 v 11.3013 c 0.005,0.1055 0.05,0.2051 0.125,0.2797 0.074,0.0747 0.174,0.1192 0.279,0.1251 h 4.21 c 0.107,0 0.21,-0.0427 0.286,-0.1186 0.076,-0.0759 0.119,-0.1789 0.119,-0.2862 V 16.852 c 0,-4.7925 -2.834,-7.22111 -6.444,-7.22111 -3.044,0 -4.598,1.97531 -5.408,4.45251 -0.228,-1.2357 -0.877,-2.3544 -1.836,-3.166 -0.959,-0.8116 -2.17,-1.26622 -3.426,-1.28651 -2.655,0 -3.853,1.61911 -4.76,4.01531 V 10.57 c 0,-0.1074 -0.043,-0.2103 -0.119,-0.2863 -0.076,-0.0759 -0.178,-0.1185 -0.286,-0.1185 h -4.209 c -0.108,0 -0.211,0.0426 -0.287,0.1185 -0.076,0.076 -0.118,0.1789 -0.118,0.2863 z m 51.131,-8.8726 c 0,-5.4402 -3.206,-9.81171 -8.355,-9.81171 -3.367,0 -5.958,1.78101 -6.767,4.30681 V 10.57 c 0,-0.1074 -0.043,-0.2103 -0.119,-0.2863 -0.076,-0.0759 -0.179,-0.1185 -0.286,-0.1185 h -4.226 c -0.107,0 -0.21,0.0426 -0.286,0.1185 -0.076,0.076 -0.119,0.1789 -0.119,0.2863 v 24.934 c 0,0.1073 0.043,0.2103 0.119,0.2862 0.076,0.0759 0.179,0.1185 0.286,0.1185 h 4.242 c 0.107,0 0.21,-0.0426 0.286,-0.1185 0.076,-0.0759 0.119,-0.1789 0.119,-0.2862 V 24.9799 c 0.809,2.5258 3.4,4.2744 6.767,4.2744 5.149,0 8.355,-4.3392 8.355,-9.8117 z m -70.139,-1.0929 3.266,-8.81595 3.275,8.81595 z m -16.191,1.101 c 0,-5.5373 -3.303,-10.03839 -9.261,-10.03839 -5.602,0 -9.261,4.50109 -9.261,10.03839 0,5.7316 4.08,10.006 10.297,10.006 3.368,0 6.25,-1.4896 7.61,-3.4649 0.035,-0.0462 0.061,-0.0992 0.075,-0.1556 0.015,-0.0565 0.018,-0.1153 0.008,-0.1729 -0.009,-0.0576 -0.029,-0.1127 -0.06,-0.162 -0.032,-0.0493 -0.072,-0.0918 -0.12,-0.1248 l -2.834,-2.5257 c -0.039,-0.0346 -0.085,-0.0605 -0.135,-0.0761 -0.05,-0.0156 -0.103,-0.0205 -0.155,-0.0144 -0.051,0.0061 -0.102,0.0231 -0.146,0.0499 -0.045,0.0267 -0.084,0.0626 -0.114,0.1053 -0.484,0.6982 -1.134,1.265 -1.892,1.6494 -0.757,0.3844 -1.598,0.5743 -2.448,0.5526 -2.396,0 -4.598,-1.1334 -4.922,-4.242 h 12.953 c 0.055,0.005 0.109,-0.0021 0.161,-0.0207 0.051,-0.0186 0.098,-0.0482 0.136,-0.0868 0.039,-0.0387 0.069,-0.0853 0.087,-0.1367 0.019,-0.0514 0.026,-0.1062 0.021,-0.1606 z m -65.978,-5.343 c 0,0.1073 0.0427,0.2103 0.1186,0.2862 0.0759,0.0759 0.1788,0.1185 0.2862,0.1185 h 2.7201 v 8.6946 c 0,3.4972 1.7811,5.5373 5.5051,5.5373 h 3.465 c 0.107,0 0.21,-0.0427 0.286,-0.1186 0.076,-0.0759 0.118,-0.1789 0.118,-0.2862 v -3.643 c 0.005,-0.0544 -0.002,-0.1092 -0.02,-0.1606 -0.019,-0.0513 -0.048,-0.098 -0.087,-0.1366 -0.039,-0.0387 -0.085,-0.0683 -0.137,-0.0869 -0.051,-0.0186 -0.106,-0.0256 -0.16,-0.0206 h -2.352 c -1.166,0 -1.554,-0.4048 -1.554,-1.3925 v -8.3788 h 3.853 c 0.107,0 0.21,-0.0426 0.286,-0.1185 0.076,-0.0759 0.119,-0.1789 0.119,-0.2862 v -3.5296 c 0,-0.1074 -0.043,-0.2104 -0.119,-0.2863 -0.076,-0.0759 -0.179,-0.1185 -0.286,-0.1185 h -3.853 V 4.83839 c 0,-0.10736 -0.043,-0.21031 -0.119,-0.28622 C 103.67,4.47626 103.567,4.43361 103.46,4.43361 H 99.1571 C 99.1027,4.42864 99.0478,4.43569 98.9965,4.45427 98.9451,4.47285 98.8984,4.50251 98.8598,4.54113 98.8212,4.57976 98.7915,4.62642 98.773,4.67779 98.7544,4.72916 98.7473,4.78399 98.7523,4.83839 V 10.149 h -2.7201 c -0.1073,0 -0.2103,0.0426 -0.2862,0.1186 -0.0759,0.0759 -0.1185,0.1788 -0.1185,0.2862 z m 72.73,14.248 c -0.018,0.0436 -0.025,0.0908 -0.02,0.1375 0.004,0.0468 0.02,0.0919 0.045,0.1314 0.025,0.0396 0.06,0.0726 0.1,0.0962 0.041,0.0236 0.087,0.0372 0.134,0.0396 h 4.954 c 0.124,0.0037 0.245,-0.0341 0.345,-0.1075 0.1,-0.0733 0.172,-0.178 0.205,-0.2972 l 1.976,-5.3754 h 9.973 l 2.024,5.3754 c 0.034,0.1192 0.106,0.2239 0.206,0.2972 0.1,0.0734 0.221,0.1112 0.345,0.1075 h 5.051 c 0.047,-0.0024 0.093,-0.016 0.134,-0.0396 0.04,-0.0236 0.075,-0.0566 0.1,-0.0962 0.025,-0.0395 0.041,-0.0846 0.045,-0.1314 0.005,-0.0467 -0.002,-0.0939 -0.02,-0.1375 L 184.936,4.8141 C 184.9,4.70687 184.83,4.61428 184.736,4.55011 184.643,4.48593 184.532,4.45359 184.418,4.4579 h -6.444 c -0.118,-0.01169 -0.237,0.01718 -0.337,0.08188 -0.1,0.0647 -0.175,0.16141 -0.213,0.27432 z M 55.555,24.2108 c -4.3068,0 -7.1888,-3.2058 -7.1888,-7.6421 0,-4.4363 2.882,-7.64211 7.1888,-7.64211 1.1837,0.01222 2.3484,0.29942 3.4021,0.83891 1.0537,0.5395 1.9675,1.3165 2.6695,2.2697 0.0298,0.0526 0.0718,0.0973 0.1224,0.1305 0.0506,0.0331 0.1084,0.0536 0.1686,0.06 0.0601,0.0063 0.1209,-0.0018 0.1773,-0.0236 0.0564,-0.0219 0.1067,-0.0569 0.1469,-0.1021 l 3.4325,-2.94674 c 0.0796,-0.07283 0.13,-0.17206 0.1419,-0.27927 0.0119,-0.1072 -0.0155,-0.21509 -0.0771,-0.3036 -2.1049,-3.07628 -5.6669,-4.6306 -10.1679,-4.6306 -7.6907,0 -12.7585,5.73158 -12.7585,12.62891 0,6.9621 5.084,12.6937 12.7585,12.6937 4.501,0 8.2897,-1.9106 10.1679,-4.6954 0.0625,-0.0882 0.0904,-0.1963 0.0784,-0.3038 -0.0119,-0.1074 -0.0629,-0.2067 -0.1432,-0.2791 l -3.4649,-2.8334 c -0.0372,-0.0445 -0.0849,-0.079 -0.1388,-0.1006 -0.0539,-0.0216 -0.1123,-0.0296 -0.1699,-0.0232 -0.0577,0.0064 -0.1129,0.027 -0.1608,0.0599 -0.0478,0.0329 -0.0867,0.0771 -0.1133,0.1287 -0.7144,0.9305 -1.6339,1.6835 -2.6871,2.2003 -1.0532,0.5167 -2.2114,0.7833 -3.3845,0.7788 z M 92.8912,3.14644 H 88.6006 C 88.5462,3.14146 88.4914,3.14851 88.44,3.16709 88.3886,3.18567 88.342,3.21533 88.3034,3.25396 88.2647,3.29258 88.2351,3.33924 88.2165,3.39061 88.1979,3.44198 88.1909,3.49681 88.1958,3.55121 V 28.3233 c 0,0.1073 0.0427,0.2103 0.1186,0.2862 0.0759,0.0759 0.1789,0.1186 0.2862,0.1186 h 4.2704 c 0.1073,0 0.2103,-0.0427 0.2862,-0.1186 0.0759,-0.0759 0.1185,-0.1789 0.1185,-0.2862 V 3.54311 C 93.2807,3.48871 93.2737,3.43388 93.2551,3.38251 93.2365,3.33114 93.2068,3.28449 93.1682,3.24586 93.1296,3.20724 93.0829,3.17758 93.0316,3.159 92.9802,3.14041 92.9254,3.13336 92.871,3.13834"
       id="path1475"
       style="fill:#000000"
       inkscape:connector-curvature="0" />
  </g>
</svg>
