<svg width="332" height="66" viewBox="0 0 332 66" fill="none" xmlns="http://www.w3.org/2000/svg">
<g clip-path="url(#clip0_8142_2506)">
<path d="M267.128 0.232422V3.62559H255.925V4.35628H266.885V14.038H262.475V7.72204H255.925V14.1841H251.51V7.72204H245.055V14.038H240.64V4.35628H251.492V3.62559H240.55V0.232422H267.128ZM267.128 18.8332V22.2263H248.019L246.893 23.6329H260.772C261.137 23.6329 261.317 23.5233 261.317 23.3087V22.8337H265.849L265.934 23.5096C265.94 23.5589 265.949 23.6077 265.961 23.6558V25.2998C265.961 26.3928 265.077 26.9378 263.308 26.9347H241.501V24.4778L242.915 22.2263H240.55V18.8332H267.128ZM265.862 14.8554V18.1618H241.699V14.8554H265.862ZM250.843 8.334V10.9097H245.74V8.334H250.843ZM250.843 11.4623V14.038H245.74V11.4623H250.843ZM261.776 8.334V10.9097H256.587V8.334H261.776ZM261.776 11.4623V14.038H256.587V11.4623H261.776Z" fill="white"/>
<path d="M282.205 0H286.259C286.142 1.42485 285.764 2.41586 285.133 2.98215C284.396 3.5415 283.484 3.8123 282.566 3.74481H280.011V4.47551H286.129V7.60379H280.011V8.33449H285.696V17.2261C285.696 18.7119 284.773 19.4532 282.926 19.4502H280.011V20.0028H285.467V23.0763H280.011V23.7476H285.809V26.9444H270.088V23.7476H276.205V23.0763H270.435V20.0028H276.205V19.4502H270.696V8.33449H276.205V7.60379H270.317V4.47551H276.205V3.74481H270.579V0.730695H280.849C281.121 0.757142 281.395 0.701971 281.636 0.572048C281.877 0.442125 282.075 0.243189 282.205 0ZM274.385 12.399H276.187V11.3486H274.385V12.399ZM276.187 16.3767V15.3263H274.385V16.3767H276.187ZM279.993 11.3532V12.4035H281.994V11.3532H279.993ZM281.034 16.3767C281.665 16.3767 281.985 16.1529 281.985 15.7054V15.3263H280.011V16.3767H281.034ZM286.62 2.01854H288.061L288.12 0H291.926L291.841 2.01854H296.656V23.5147C296.656 25.792 295.427 26.9322 292.967 26.9352H291.318V23.1904H291.58C292.255 23.1904 292.589 22.9073 292.589 22.3456V5.87753H291.688L291.003 22.4917C290.944 23.9714 290.661 25.0628 290.138 25.7661C289.925 26.1174 289.629 26.4091 289.276 26.6149C288.924 26.8207 288.526 26.9339 288.12 26.9444H286.129V23.0763H286.732C287.138 23.0763 287.35 22.4597 287.368 21.2495L287.917 5.89579H286.62V2.01854Z" fill="white"/>
<path d="M300.12 1.89981H306.467L306.58 0H311.661L311.517 1.89981H325.594V22.8342C325.594 25.5043 324.066 26.8409 321.009 26.8439H315.553V22.3684H319.13C319.977 22.3684 320.4 22.0533 320.4 21.455V6.43468H311.197L310.103 20.939C309.772 24.8604 308.82 26.8211 307.247 26.8211H300.584V22.4597H304.157C304.756 22.4597 305.139 21.4185 305.314 19.3314L306.179 6.43468H300.12V1.89981Z" fill="white"/>
<path d="M86.2647 36.9365L71.8137 55.0806V65.5843H63.9665V55.0806L49.6461 36.9365H58.7861L67.3135 47.5453C67.3721 47.7828 67.5748 47.8969 67.9261 47.8969C68.0716 47.9103 68.2179 47.8848 68.3507 47.8232C68.4834 47.7615 68.5979 47.6657 68.6829 47.5453L77.0301 36.9365H86.2647Z" fill="#F8B914"/>
<path d="M122.978 59.7849C122.978 61.6117 122.046 63.1233 120.181 64.3198C118.296 65.4776 116.122 66.061 113.919 66.0004C111.952 66.0244 110.01 65.5537 108.266 64.6304C106.482 63.7085 105.078 62.1765 104.302 60.3055C104.148 59.928 103.44 57.8806 102.175 54.1631C101.031 50.7928 100.031 48.1547 99.1752 46.2488C97.9905 43.6457 97.031 42.3898 96.2922 42.4675C95.9088 42.508 95.5501 42.6786 95.2742 42.9515C95.0657 43.2232 94.9617 43.5624 94.9814 43.906V65.5757H87.1117V42.4401C87.1117 40.3302 88.0922 38.7242 90.0533 37.622C91.744 36.6782 93.9093 36.2048 96.549 36.2018C98.1949 36.1576 99.8257 36.5299 101.294 37.285C102.762 38.0401 104.022 39.1542 104.959 40.5266C106.359 42.4507 107.689 45.5623 108.95 49.8612C110.353 54.5863 111.372 57.5152 112.009 58.6478C112.164 58.9379 112.397 59.1776 112.681 59.3392C112.965 59.5008 113.288 59.5778 113.613 59.5612C113.982 59.5684 114.341 59.4348 114.617 59.1867C114.758 59.0547 114.869 58.8932 114.942 58.7134C115.015 58.5336 115.049 58.3398 115.041 58.1454V36.5351H122.978V59.7849Z" fill="#F8B914"/>
<path d="M161.371 65.5977H152.952L143.654 43.3846C143.596 43.1517 143.393 43.0329 143.046 43.0329C142.905 43.0222 142.763 43.049 142.635 43.1107C142.507 43.1723 142.398 43.2667 142.317 43.3846L133.226 65.5977H124.694C125.175 64.2276 126.218 61.5012 127.825 57.4185C129.432 53.3357 130.99 49.4767 132.501 45.8415C134.192 41.7953 135.22 39.5439 135.587 39.0872C136.422 38.2065 137.48 37.5747 138.645 37.2604C141.493 36.408 144.523 36.408 147.371 37.2604C148.531 37.5768 149.584 38.2084 150.416 39.0872C150.845 39.5591 151.897 41.7953 153.569 45.7959C154.602 48.2528 156.137 52.1118 158.173 57.3728C159.41 60.5696 160.476 63.3112 161.371 65.5977Z" fill="#F8B914"/>
<path d="M193.039 65.5984H175.642C171.465 65.5984 168.161 64.1264 165.732 61.1823C163.558 58.5396 162.469 55.2819 162.466 51.4092C162.466 47.4726 163.574 44.1236 165.791 41.3622C168.238 38.2932 171.519 36.7588 175.633 36.7588H193.03V42.8418H176.953C176.042 42.8189 175.141 43.0378 174.339 43.4768C173.537 43.9157 172.862 44.5596 172.381 45.3445C171.349 46.9996 170.832 48.9316 170.899 50.8886C170.837 52.935 171.373 54.9544 172.439 56.6931C173.566 58.4559 175.067 59.3357 176.944 59.3327H193.03L193.039 65.5984Z" fill="#4679BC"/>
<path d="M226.275 65.5984H212.085C207.602 65.5984 204.049 64.6851 201.427 62.8583C199.378 61.4425 197.842 59.3865 197.053 57.0036C196.478 55.3022 196.193 53.5138 196.211 51.7152C196.211 51.2738 196.211 50.9693 196.211 50.8019C196.218 50.6384 196.243 50.4762 196.283 50.3178V36.7451H204.148V50.2949C204.078 52.5064 204.746 54.677 206.044 56.4556C207.501 58.3737 209.51 59.3327 212.072 59.3327H226.262L226.275 65.5984Z" fill="#E84433"/>
<path d="M252.789 65.5984H241.163C236.989 65.5984 233.696 64.1264 231.284 61.1823C229.113 58.5396 228.026 55.2819 228.023 51.4092C228.023 47.4726 229.129 44.1236 231.343 41.3622C233.793 38.2932 237.067 36.7588 241.163 36.7588H252.789C256.886 36.7588 260.158 38.2932 262.605 41.3622C264.819 44.1327 265.925 47.4939 265.925 51.4458C265.925 55.3184 264.847 58.5685 262.691 61.196C260.282 64.1309 256.982 65.5984 252.789 65.5984ZM251.479 59.3327C253.338 59.3327 254.839 58.4528 255.983 56.6931C257.051 54.9548 257.589 52.9355 257.528 50.8886C257.596 48.9309 257.077 46.9983 256.042 45.3445C255.566 44.5621 254.897 43.9195 254.1 43.4805C253.303 43.0415 252.408 42.8213 251.501 42.8418H242.492C241.585 42.8214 240.688 43.0416 239.891 43.4806C239.094 43.9196 238.423 44.5621 237.947 45.3445C236.913 46.9992 236.395 48.9311 236.46 50.8886C236.397 52.9315 236.923 54.9487 237.974 56.6931C239.1 58.4559 240.601 59.3357 242.478 59.3327H251.479Z" fill="#36A251"/>
<path d="M298.147 55.2591C298.147 58.6081 296.554 61.2691 293.368 63.2419C290.494 65.0382 286.979 65.9348 282.822 65.9318C278.786 65.9318 275.388 65.0504 272.628 63.2876C269.538 61.3147 267.993 58.6386 267.993 55.2591V36.7451H275.714V54.2133C275.714 55.7356 276.511 56.9534 278.106 57.8668C279.726 58.7401 281.542 59.1713 283.376 59.1181C285.122 59.177 286.852 58.7607 288.386 57.9124C289.902 57.0173 290.653 55.7904 290.638 54.2316V36.7451H298.125L298.147 55.2591Z" fill="#E84433"/>
<path d="M318.833 65.5984H301.44V36.7451H318.833C322.95 36.7451 326.233 38.2674 328.68 41.312C330.89 44.0795 331.995 47.4452 331.995 51.4092C331.995 55.2789 330.908 58.5366 328.734 61.1823C326.311 64.1264 323.01 65.5984 318.833 65.5984ZM317.522 59.3327C319.387 59.3327 320.888 58.4528 322.027 56.6931C323.092 54.9539 323.63 52.9353 323.572 50.8886C323.639 48.9309 323.121 46.9983 322.085 45.3445C321.608 44.5621 320.938 43.9196 320.141 43.4806C319.343 43.0417 318.447 42.8215 317.54 42.8419H309.305V59.3327H317.522Z" fill="#4679BC"/>
<path d="M32.231 26.291H0L3.85151 33.598H32.231C34.0785 33.6028 35.8487 34.3502 37.1534 35.6763C38.4581 37.0025 39.1908 38.799 39.1908 40.672V51.2123C39.1884 53.0853 38.4534 54.8808 37.1471 56.2052C35.8407 57.5296 34.0695 58.2748 32.222 58.2772H21.5009C19.6534 58.2748 17.8822 57.5296 16.5759 56.2052C15.2695 54.8808 14.5345 53.0853 14.5321 51.2123V44.2981H26.6948C27.0237 44.2981 27.3393 44.4302 27.5723 44.6656C27.8054 44.901 27.9369 45.2205 27.9381 45.554V46.4673C27.9369 46.8008 27.8054 47.1203 27.5723 47.3556C27.3393 47.591 27.0237 47.7232 26.6948 47.7232H17.8926V50.5821C17.8926 51.159 18.0047 51.7303 18.2225 52.2633C18.4403 52.7963 18.7595 53.2806 19.1619 53.6886C19.5643 54.0965 20.042 54.4201 20.5678 54.6409C21.0935 54.8617 21.657 54.9753 22.2261 54.9753H31.4607C32.0298 54.9753 32.5933 54.8617 33.1191 54.6409C33.6449 54.4201 34.1226 54.0965 34.525 53.6886C34.9274 53.2806 35.2466 52.7963 35.4644 52.2633C35.6822 51.7303 35.7943 51.159 35.7943 50.5821V41.4484C35.8026 40.8661 35.6967 40.2879 35.4827 39.7475C35.2686 39.2071 34.9507 38.7152 34.5475 38.3004C34.1443 37.8857 33.6637 37.5563 33.1338 37.3316C32.6039 37.1068 32.0352 36.9911 31.4607 36.9911H22.2261C22.109 36.9911 21.9964 37.0185 21.8793 37.0277H7.3021V44.2341V51.2123C7.30568 55.0264 8.80182 58.6834 11.4621 61.3804C14.1225 64.0774 17.7296 65.5942 21.4919 65.5978H32.231C35.9933 65.5942 39.6005 64.0774 42.2608 61.3804C44.9211 58.6834 46.4172 55.0264 46.4208 51.2123V40.672C46.416 36.8586 44.9194 33.2029 42.2592 30.5068C39.599 27.8108 35.9925 26.2946 32.231 26.291Z" fill="#F8B914"/>
</g>
<defs>
<clipPath id="clip0_8142_2506">
<rect width="332" height="66" fill="white"/>
</clipPath>
</defs>
</svg>
