<svg width="202" height="40" viewBox="0 0 202 40" fill="none" xmlns="http://www.w3.org/2000/svg">
<g clip-path="url(#clip0_8412_757)">
<path d="M162.53 0.140625V2.19709H155.713V2.63993H162.382V8.50763H159.698V4.67979H155.713V8.5962H153.027V4.67979H149.1V8.50763H146.414V2.63993H153.016V2.19709H146.359V0.140625H162.53ZM162.53 11.4138V13.4703H150.903L150.218 14.3227H158.662C158.884 14.3227 158.994 14.2563 158.994 14.1262V13.8384H161.751L161.803 14.248C161.807 14.2779 161.812 14.3075 161.82 14.3366V15.333C161.82 15.9954 161.282 16.3257 160.205 16.3239H146.937V14.8348L147.798 13.4703H146.359V11.4138H162.53ZM161.76 9.00307V11.0069H147.058V9.00307H161.76ZM152.622 5.05067V6.6117H149.516V5.05067H152.622ZM152.622 6.9466V8.50763H149.516V6.9466H152.622ZM159.274 5.05067V6.6117H156.116V5.05067H159.274ZM159.274 6.9466V8.50763H156.116V6.9466H159.274Z" fill="#231815"/>
<path d="M171.703 0H174.17C174.099 0.863548 173.868 1.46416 173.485 1.80736C173.036 2.14636 172.481 2.31049 171.922 2.26958H170.368V2.71243H174.09V4.60836H170.368V5.0512H173.827V10.4401C173.827 11.3405 173.265 11.7898 172.142 11.788H170.368V12.1229H173.688V13.9856H170.368V14.3925H173.896V16.3299H164.33V14.3925H168.052V13.9856H164.541V12.1229H168.052V11.788H164.7V5.0512H168.052V4.60836H164.47V2.71243H168.052V2.26958H164.629V0.442845H170.878C171.044 0.458874 171.21 0.425437 171.357 0.346696C171.503 0.267955 171.624 0.147387 171.703 0ZM166.945 7.51453H168.041V6.87794H166.945V7.51453ZM168.041 9.92527V9.28868H166.945V9.92527H168.041ZM170.357 6.88071V7.5173H171.574V6.88071H170.357ZM170.991 9.92527C171.374 9.92527 171.569 9.78965 171.569 9.51841V9.28868H170.368V9.92527H170.991ZM174.389 1.22336H175.266L175.302 0H177.618L177.566 1.22336H180.496V14.2513C180.496 15.6315 179.747 16.3225 178.251 16.3244H177.248V14.0548H177.407C177.818 14.0548 178.021 13.8832 178.021 13.5428V3.56214H177.473L177.056 13.6313C177.02 14.5281 176.848 15.1896 176.53 15.6158C176.4 15.8287 176.22 16.0055 176.006 16.1302C175.791 16.2549 175.549 16.3236 175.302 16.3299H174.09V13.9856H174.458C174.704 13.9856 174.833 13.612 174.844 12.8785L175.179 3.57321H174.389V1.22336Z" fill="#231815"/>
<path d="M182.603 1.1514H186.465L186.534 0H189.625L189.538 1.1514H198.103V13.8389C198.103 15.4571 197.173 16.2672 195.312 16.269H191.993V13.5566H194.17C194.685 13.5566 194.942 13.3656 194.942 13.003V3.89981H189.343L188.677 12.6903C188.476 15.0669 187.897 16.2552 186.939 16.2552H182.886V13.612H185.059C185.424 13.612 185.657 12.9809 185.763 11.716L186.29 3.89981H182.603V1.1514Z" fill="#231815"/>
<path d="M52.4864 22.3867L43.6939 33.3831V39.749H38.9194V33.3831L30.2064 22.3867H35.7675L40.9558 28.8163C40.9915 28.9602 41.1148 29.0294 41.3286 29.0294C41.4171 29.0375 41.5061 29.0221 41.5869 28.9847C41.6676 28.9473 41.7373 28.8892 41.789 28.8163L46.8678 22.3867H52.4864Z" fill="#F8B914"/>
<path d="M74.8239 36.2325C74.8239 37.3396 74.2566 38.2557 73.1219 38.9809C71.9751 39.6825 70.6526 40.0361 69.3122 39.9994C68.1153 40.014 66.9335 39.7287 65.8725 39.1691C64.7873 38.6104 63.9329 37.6819 63.4606 36.548C63.3674 36.3192 62.9362 35.0783 62.1669 32.8253C61.4708 30.7827 60.8623 29.1838 60.3415 28.0288C59.6207 26.4511 59.0369 25.69 58.5874 25.737C58.3541 25.7616 58.1359 25.865 57.968 26.0304C57.8412 26.1951 57.7779 26.4006 57.7899 26.6089V39.742H53.0017V25.7204C53.0017 24.4417 53.5983 23.4684 54.7914 22.8004C55.8201 22.2284 57.1375 21.9415 58.7437 21.9396C59.7451 21.9129 60.7373 22.1385 61.6307 22.5961C62.5241 23.0538 63.2905 23.729 63.8607 24.5607C64.7122 25.7269 65.5217 27.6127 66.2891 30.2181C67.1424 33.0818 67.7627 34.8569 68.1501 35.5433C68.2445 35.7191 68.3862 35.8644 68.5588 35.9623C68.7315 36.0603 68.928 36.1069 69.1258 36.0968C69.3505 36.1013 69.5687 36.0202 69.737 35.8699C69.8228 35.7899 69.8903 35.692 69.9348 35.5831C69.9793 35.4741 69.9997 35.3566 69.9947 35.2388V22.1417H74.8239V36.2325Z" fill="#F8B914"/>
<path d="M98.1838 39.7569H93.0613L87.4042 26.2944C87.3686 26.1532 87.2453 26.0813 87.0342 26.0813C86.9483 26.0748 86.8621 26.091 86.7842 26.1284C86.7064 26.1658 86.6395 26.223 86.5902 26.2944L81.0593 39.7569H75.8682C76.1605 38.9266 76.7955 37.2742 77.7731 34.7998C78.7506 32.3254 79.6989 29.9866 80.618 27.7835C81.6467 25.3312 82.2725 23.9667 82.4955 23.6899C83.004 23.1561 83.6476 22.7733 84.3565 22.5828C86.0891 22.0662 87.9327 22.0662 89.6654 22.5828C90.3713 22.7745 91.012 23.1573 91.5182 23.6899C91.7795 23.9759 92.419 25.3312 93.4368 27.7558C94.0653 29.2449 94.999 31.5836 96.2379 34.7721C96.9907 36.7096 97.6393 38.3712 98.1838 39.7569Z" fill="#F8B914"/>
<path d="M117.452 39.7559H106.867C104.325 39.7559 102.315 38.8637 100.837 37.0794C99.514 35.4778 98.8517 33.5035 98.8498 31.1564C98.8498 28.7706 99.5241 26.7409 100.873 25.0673C102.362 23.2073 104.358 22.2773 106.861 22.2773H117.446V25.964H107.664C107.11 25.9501 106.562 26.0828 106.074 26.3488C105.586 26.6149 105.175 27.0051 104.882 27.4808C104.254 28.4839 103.94 29.6548 103.981 30.8409C103.943 32.0811 104.269 33.305 104.918 34.3587C105.603 35.4271 106.517 35.9603 107.659 35.9585H117.446L117.452 39.7559Z" fill="#4679BC"/>
<path d="M137.673 39.7564H129.04C126.312 39.7564 124.15 39.2028 122.555 38.0957C121.309 37.2376 120.374 35.9916 119.894 34.5474C119.544 33.5162 119.37 32.4323 119.381 31.3423C119.381 31.0748 119.381 30.8903 119.381 30.7888C119.386 30.6897 119.401 30.5914 119.425 30.4954V22.2695H124.211V30.4815C124.168 31.8218 124.575 33.1374 125.364 34.2153C126.251 35.3778 127.473 35.959 129.032 35.959H137.665L137.673 39.7564Z" fill="#E84433"/>
<path d="M153.806 39.7559H146.732C144.192 39.7559 142.188 38.8637 140.721 37.0794C139.4 35.4778 138.739 33.5035 138.737 31.1564C138.737 28.7706 139.41 26.7409 140.757 25.0673C142.248 23.2073 144.239 22.2773 146.732 22.2773H153.806C156.298 22.2773 158.289 23.2073 159.778 25.0673C161.125 26.7464 161.798 28.7835 161.798 31.1785C161.798 33.5256 161.142 35.4954 159.83 37.0878C158.365 38.8665 156.356 39.7559 153.806 39.7559ZM153.008 35.9585C154.139 35.9585 155.053 35.4252 155.749 34.3587C156.399 33.3052 156.726 32.0814 156.689 30.8409C156.73 29.6544 156.415 28.4831 155.785 27.4808C155.495 27.0066 155.088 26.6172 154.603 26.3511C154.118 26.085 153.573 25.9516 153.022 25.964H147.54C146.988 25.9517 146.443 26.0851 145.958 26.3512C145.473 26.6172 145.065 27.0066 144.775 27.4808C144.146 28.4836 143.831 29.6545 143.87 30.8409C143.832 32.079 144.152 33.3016 144.791 34.3587C145.476 35.4271 146.39 35.9603 147.532 35.9585H153.008Z" fill="#36A251"/>
<path d="M181.403 33.4901C181.403 35.5198 180.434 37.1325 178.495 38.3282C176.746 39.4169 174.607 39.9603 172.079 39.9584C169.623 39.9584 167.555 39.4242 165.876 38.3559C163.996 37.1602 163.056 35.5383 163.056 33.4901V22.2695H167.754V32.8563C167.754 33.7789 168.239 34.517 169.209 35.0705C170.195 35.5998 171.3 35.8612 172.416 35.8289C173.478 35.8646 174.53 35.6123 175.464 35.0982C176.386 34.5557 176.843 33.8121 176.834 32.8674V22.2695H181.389L181.403 33.4901Z" fill="#E84433"/>
<path d="M193.989 39.7564H183.406V22.2695H193.989C196.494 22.2695 198.491 23.1921 199.98 25.0373C201.325 26.7146 201.997 28.7544 201.997 31.1569C201.997 33.5021 201.336 35.4765 200.013 37.0799C198.538 38.8642 196.53 39.7564 193.989 39.7564ZM193.191 35.959C194.326 35.959 195.239 35.4257 195.932 34.3592C196.58 33.3052 196.907 32.0817 196.872 30.8414C196.913 29.6549 196.598 28.4836 195.967 27.4813C195.677 27.0071 195.269 26.6177 194.784 26.3517C194.299 26.0856 193.754 25.9522 193.202 25.9645H188.192V35.959H193.191Z" fill="#4679BC"/>
<path d="M19.6105 15.9336H0L2.34339 20.362H19.6105C20.7345 20.365 21.8116 20.818 22.6054 21.6217C23.3992 22.4254 23.845 23.5142 23.845 24.6493V31.0374C23.8435 32.1725 23.3964 33.2608 22.6015 34.0634C21.8067 34.8661 20.729 35.3177 19.605 35.3191H13.0819C11.9578 35.3177 10.8802 34.8661 10.0853 34.0634C9.29047 33.2608 8.84328 32.1725 8.84183 31.0374V26.847H16.242C16.4422 26.847 16.6342 26.9271 16.7759 27.0697C16.9177 27.2124 16.9977 27.406 16.9985 27.6081V28.1617C16.9977 28.3638 16.9177 28.5574 16.7759 28.7C16.6342 28.8427 16.4422 28.9228 16.242 28.9228H10.8865V30.6554C10.8865 31.0051 10.9547 31.3513 11.0872 31.6744C11.2197 31.9974 11.4139 32.2909 11.6587 32.5382C11.9036 32.7854 12.1942 32.9816 12.5141 33.1154C12.834 33.2492 13.1769 33.318 13.5231 33.318H19.1418C19.488 33.318 19.8309 33.2492 20.1508 33.1154C20.4707 32.9816 20.7613 32.7854 21.0062 32.5382C21.251 32.2909 21.4452 31.9974 21.5777 31.6744C21.7102 31.3513 21.7784 31.0051 21.7784 30.6554V25.1199C21.7835 24.767 21.7191 24.4166 21.5888 24.089C21.4586 23.7615 21.2652 23.4634 21.0199 23.212C20.7745 22.9607 20.4821 22.7611 20.1597 22.6248C19.8373 22.4886 19.4913 22.4185 19.1418 22.4185H13.5231C13.4519 22.4185 13.3833 22.4351 13.3121 22.4407H4.44284V26.8082V31.0374C4.44502 33.349 5.35532 35.5653 6.97395 37.1999C8.59258 38.8344 10.7873 39.7537 13.0764 39.7559H19.6105C21.8995 39.7537 24.0942 38.8344 25.7129 37.1999C27.3315 35.5653 28.2418 33.349 28.244 31.0374V24.6493C28.2411 22.3382 27.3305 20.1226 25.7119 18.4886C24.0934 16.8547 21.8991 15.9358 19.6105 15.9336Z" fill="#F8B914"/>
</g>
<defs>
<clipPath id="clip0_8412_757">
<rect width="202" height="40" fill="white"/>
</clipPath>
</defs>
</svg>
